# Blender 3.6.4
# www.blender.org
o Dart_Cone
v 0.000000 0.213862 -0.115663
v 0.220326 -0.084805 -0.259653
v -0.220326 -0.084805 -0.259653
v 0.000000 -0.084967 0.447043
v 0.311769 -0.040138 -0.326928
v -0.311769 -0.040138 -0.326928
v 0.000000 -0.040368 0.673072
v 0.311769 -0.040138 -0.326928
v -0.311769 -0.040138 -0.326928
v 0.000000 -0.040368 0.673072
v 0.000000 0.121833 0.384521
vn 0.8096 0.5315 0.2491
vn 0.8072 0.5329 0.2540
vn 0.7884 0.5446 0.2861
vn -0.0000 0.6395 -0.7688
vn -0.0000 -1.0000 -0.0002
vn -0.8072 0.5329 0.2540
vn -0.8096 0.5315 0.2491
vn -0.7884 0.5446 0.2861
vn -0.0000 -0.0000 1.0000
vn -0.0000 -0.8331 -0.5531
vn -0.5280 -0.8332 0.1644
vn 0.5279 -0.8332 0.1644
vn 0.8150 0.5323 0.2291
vn 0.8197 0.5288 0.2201
vn 0.8149 0.5323 0.2291
vn -0.8149 0.5323 0.2291
vn -0.8197 0.5288 0.2201
vn -0.8150 0.5323 0.2291
vn -0.5279 -0.8332 0.1644
vn 0.5280 -0.8332 0.1644
s 0
f 11//1 5//2 1//3
f 1//4 5//4 6//4
f 2//5 4//5 3//5
f 6//6 11//7 1//8
f 8//9 6//9 5//9
f 9//9 7//9 6//9
f 10//9 5//9 7//9
f 3//10 8//10 2//10
f 4//11 9//11 3//11
f 4//12 8//12 10//12
f 11//13 7//14 5//15
f 6//16 7//17 11//18
f 8//9 9//9 6//9
f 9//9 10//9 7//9
f 10//9 8//9 5//9
f 3//10 9//10 8//10
f 4//19 10//19 9//19
f 4//20 2//20 8//20
